# Blender v2.93.6 OBJ File: ''
# www.blender.org
mtllib headset_25%.mtl
o High-end_headset_01_Cube.027
v -8.189348 2.978792 4.183377
v -7.361934 6.069847 4.277687
v -6.882693 5.907542 -3.681385
v -7.775111 4.005750 -3.775774
v -0.753337 6.070241 5.355754
v -6.731181 0.314286 -3.648702
v 0.061733 0.378597 -2.480000
v -0.049099 5.868530 -2.475671
v -0.536240 0.100798 5.488569
v 6.895179 0.311605 -3.697562
v -7.967948 2.203864 -3.806331
v -7.361083 0.140920 4.279012
v -7.298732 2.340360 -3.645035
v -7.071834 2.241412 -14.125080
v -7.448800 3.978335 -10.213888
v -6.323447 2.232551 -14.426807
v -6.633577 3.978336 -14.419508
v -7.800885 3.978335 -10.213888
v -3.495420 3.978336 -16.603371
v -3.370840 2.232367 -16.435305
v 1.472112 2.231897 -16.841417
v -3.194765 3.978336 -16.279566
v -0.924615 4.231596 -16.589314
v -0.000001 3.978336 -16.645634
v -0.929480 4.067757 -16.944548
v -0.000001 3.978336 -17.087486
v 0.000000 6.032300 -1.292064
v 0.000000 8.521810 -3.188339
v -0.947930 8.441336 -3.488591
v -0.938043 6.032265 -1.610053
v 0.000000 6.032300 -1.770028
v 0.000000 8.065729 -3.331306
v -0.000001 9.969426 -8.006956
v -0.938044 9.819852 -8.335325
v -0.000001 9.607720 -8.049787
v 0.000000 9.202812 -11.816444
v -0.938045 8.584200 -14.951794
v -0.000001 8.116435 -15.062514
v 0.000000 9.557323 -11.900043
v -0.000001 8.391487 -15.301289
v -0.000001 4.850394 -16.602070
v -0.000001 4.949513 -16.952557
v 8.174688 3.066444 4.181426
v 7.339040 6.084249 4.361641
v 7.612334 3.953895 -3.754680
v 6.905799 5.885298 -3.688574
v 7.932230 2.221855 -3.803371
v 7.361095 0.140936 4.278989
v 7.228629 2.325768 -3.637606
v 7.102356 2.239005 -14.085320
v 7.448799 3.978335 -10.213889
v 6.652081 3.978336 -14.348586
v 6.323446 2.232551 -14.426807
v 7.800883 3.978335 -10.213887
v 3.495419 2.232552 -16.603371
v 3.588934 3.979096 -16.387600
v 0.945740 3.978336 -16.476601
v 0.939100 4.105196 -16.874487
v 0.939770 8.414242 -3.417880
v 0.938043 6.032265 -1.610053
v 0.938044 9.888372 -9.052693
v 0.938044 8.228899 -15.256474
v -6.507105 5.652147 -2.258296
v -7.235971 3.035784 -2.267997
v 6.645873 0.608088 -2.254389
v 6.805919 5.551584 -2.251457
v -6.507106 0.558735 -2.258297
v -4.818069 3.049698 -2.429439
v -3.770950 4.907999 -2.496158
v 1.898690 4.305877 -2.074584
v 4.124868 4.795376 -2.054099
v 3.828424 4.889999 -2.476268
v 3.677418 1.097744 -2.057096
v 1.298587 2.504648 -2.057098
v 1.905683 1.593756 -2.415315
v 5.134570 2.984936 -2.058484
v 4.741184 2.330609 -2.405460
v 8.213239 2.384630 -1.060972
v 7.644689 2.127103 0.114786
v 7.645270 2.556925 -1.198432
v 7.622856 3.897895 -0.618695
v 8.164530 3.924397 -0.172443
v 7.645269 3.359613 0.739436
v 8.183405 2.706336 0.676949
v -2.575285 4.926754 -2.054099
v -1.783284 4.258200 -2.403276
v -3.205590 1.085660 -2.401678
v -2.217703 1.287683 -2.056934
v -5.127697 3.606753 -2.054100
v -4.554572 1.638580 -2.060006
v -1.274353 2.990548 -2.058063
v -8.194921 2.067014 -0.592049
v -7.644689 2.550361 -1.094028
v -7.635267 2.603881 0.717217
v -7.664365 3.469409 -1.046593
v -7.651750 3.877486 0.088757
v -8.175168 2.632896 0.620580
vn -0.8102 -0.5088 -0.2910
vn 0.1057 -0.5995 -0.7933
vn -0.5331 -0.6599 0.5295
vn -0.0089 -0.6790 0.7341
vn 0.0054 0.9965 -0.0836
vn -0.0041 0.3262 -0.9453
vn -0.8058 0.4721 -0.3574
vn 0.3246 -0.0656 0.9436
vn 0.4010 -0.0649 0.9138
vn 0.1457 -0.1025 0.9840
vn -0.0056 -0.3412 -0.9400
vn 0.0530 -0.5205 -0.8522
vn -0.5169 -0.4775 -0.7105
vn 0.7853 -0.4626 -0.4115
vn -0.0045 0.9964 -0.0846
vn 0.2664 0.2332 -0.9352
vn 0.4648 -0.5791 -0.6698
vn -0.4819 0.8351 -0.2655
vn -0.5007 -0.5262 -0.6873
vn 0.7084 -0.0139 -0.7057
vn -0.0176 0.6859 0.7274
vn -0.0002 1.0000 -0.0057
vn -0.8132 0.0212 0.5816
vn -0.9990 0.0038 -0.0452
vn 0.8462 -0.2058 -0.4915
vn -0.3072 0.8204 -0.4822
vn -0.7660 0.0864 -0.6369
vn -0.0596 0.9909 -0.1208
vn 0.4962 -0.7576 0.4240
vn 0.9124 -0.2625 0.3141
vn -0.1189 -0.1025 -0.9876
vn -0.1623 -0.1212 -0.9793
vn -0.1901 -0.9814 -0.0272
vn -0.5309 0.6663 0.5236
vn 0.0019 0.9741 -0.2262
vn -0.1807 0.6662 -0.7236
vn -0.1212 0.7823 -0.6110
vn 0.0733 0.9434 -0.3234
vn 0.0697 -0.0367 0.9969
vn 0.0679 -0.0377 0.9970
vn 0.0471 -0.0498 0.9976
vn -0.1378 0.1363 -0.9810
vn 0.5321 0.6518 0.5404
vn 0.5160 -0.6746 0.5279
vn -0.6315 0.7744 0.0393
vn -0.9598 0.1404 -0.2431
vn -0.0000 1.0000 0.0021
vn 0.8091 0.1361 -0.5717
vn 0.8663 0.3389 -0.3669
vn 0.9431 0.2045 -0.2620
vn -0.1135 -0.2358 0.9651
vn -0.1703 -0.2504 0.9530
vn -0.0696 -0.2240 0.9721
vn 0.1664 -0.0871 -0.9822
vn 0.2076 0.0973 -0.9734
vn 0.1925 0.4207 -0.8865
vn 0.0271 0.9939 -0.1065
vn 0.2946 0.9219 -0.2518
vn -0.0314 0.9940 -0.1052
vn 0.1566 0.1676 -0.9733
vn -0.0105 0.9526 0.3039
vn 0.2018 0.1348 -0.9701
vn 0.9909 0.1108 -0.0767
vn 0.4429 0.5842 -0.6801
vn -0.3155 0.0240 -0.9486
vn 0.1649 0.3381 -0.9266
vn 0.9576 0.1908 -0.2160
vn 0.9365 -0.1315 0.3252
vn 0.6285 0.7766 0.0439
vn -0.9678 -0.2467 -0.0498
vn 0.9770 0.2113 0.0304
vn -0.9943 -0.0931 -0.0517
vn -0.5482 -0.0614 -0.8341
vn -0.8116 0.0764 -0.5792
vn 0.0000 1.0000 -0.0023
vn 0.5177 -0.0201 0.8553
vn -0.9453 0.1940 -0.2624
vn -0.1093 -0.2645 -0.9582
vn -0.2748 0.5865 0.7619
vn -0.9250 0.2270 0.3047
vn -0.9386 0.2055 0.2770
vn -0.1222 -0.6078 -0.7846
vn -0.2060 0.9393 0.2744
vn -0.9927 0.1207 0.0071
vn -0.9990 0.0426 -0.0164
vn -0.2236 -0.9321 -0.2848
vn -0.2980 0.9431 -0.1479
vn -0.9953 0.0965 -0.0121
vn -0.9991 0.0421 -0.0035
vn -0.1147 -0.6466 0.7542
vn -0.3992 -0.8695 0.2910
vn -0.2160 -0.7484 0.6271
vn -0.0704 -0.9853 0.1557
vn -0.3113 0.3954 -0.8642
vn -0.4833 0.7556 -0.4422
vn 0.0920 -0.3831 0.9191
vn -0.8442 0.5279 -0.0928
vn -0.0976 -0.1434 -0.9848
vn 0.8156 -0.0189 0.5783
vn 0.9333 -0.3583 -0.0263
vn -0.3497 -0.9291 0.1204
vn -0.9053 -0.2808 0.3186
vn -0.9335 -0.1426 0.3289
vn 0.9736 -0.2251 -0.0367
vn -0.9807 0.1947 0.0161
vn -0.9552 0.1176 -0.2715
vn 0.9971 -0.0654 -0.0384
vn -0.2205 0.6470 0.7299
vn 0.5635 0.0464 -0.8248
vn 0.0868 -0.8387 -0.5377
vn -0.4799 0.2061 0.8528
vn 0.2578 0.5848 0.7692
vn 0.9348 0.2120 0.2849
vn 0.9202 0.2340 0.3138
vn -1.0000 -0.0000 0.0000
vn 0.1422 -0.6005 -0.7869
vn 0.2692 0.9275 0.2592
vn 0.9995 -0.0110 -0.0292
vn 0.5159 -0.8515 0.0944
vn 0.1574 -0.9481 -0.2762
vn 0.2175 -0.9583 -0.1852
vn 0.0263 -0.9600 0.2789
vn 0.9900 0.1329 -0.0477
vn 0.3807 -0.9194 0.0988
vn 0.3294 0.9058 -0.2664
vn 0.1812 0.3298 0.9265
vn 0.2633 0.3827 -0.8856
vn 0.9792 0.0899 -0.1821
vn 0.9956 0.0470 -0.0813
vn 0.0956 -0.3911 0.9154
vn -0.0328 -0.2138 0.9763
vn 0.9756 -0.1812 -0.1243
vn -0.5835 -0.7387 -0.3375
vn 0.1098 0.8081 -0.5788
vn 0.6625 -0.4245 -0.6171
vn -0.0493 -0.9154 -0.3995
vn -0.3652 0.8578 -0.3617
vn 0.7718 0.4736 -0.4243
vn -0.2832 0.2147 -0.9347
vn -0.5643 -0.1028 -0.8191
vn 0.5131 -0.8562 0.0606
vn 0.6537 -0.4720 -0.5915
vn 0.5614 -0.3176 0.7641
vn 0.9489 0.1903 0.2519
vn -0.9363 0.3294 -0.1216
vn -0.5089 -0.8084 -0.2960
vn -0.7331 -0.1721 0.6580
vn -0.9034 0.4190 0.0914
vn 0.5836 0.7771 -0.2356
vn 0.7796 0.4359 -0.4497
vn -0.5258 -0.0160 -0.8504
vn 0.1371 -0.5341 -0.8342
vn 0.6486 0.0136 -0.7610
vn 0.2921 -0.2385 -0.9262
vn 0.0043 0.9834 -0.1812
vn 0.2724 0.7861 -0.5548
vn -0.3329 0.8747 0.3522
vn 0.3762 0.2239 0.8991
vn -0.4066 -0.4129 0.8150
vn 0.1773 0.8385 -0.5152
vn -0.2934 0.5673 0.7695
vn 0.4384 -0.0987 -0.8933
vn 0.6428 0.4306 0.6336
vn -0.3840 -0.4329 -0.8156
vn -0.1055 -0.6961 0.7101
vn -0.4211 -0.3772 -0.8248
vn 0.0091 -0.3753 0.9269
vn 0.3199 -0.1557 -0.9346
vn -0.6544 0.1373 -0.7436
vn -0.8981 -0.2605 -0.3543
vn -0.6847 0.0229 -0.7284
usemtl 1A1A1A
s 1
f 11//1 6//2 12//3
f 12//3 6//2 9//4
f 30//5 8//6 3//7
f 22//8 20//9 23//10
f 9//4 7//11 10//12
f 10//12 49//13 47//14
f 8//6 60//15 46//16
f 8//6 63//17 3//7
f 7//11 65//18 10//12
f 63//17 66//19 64//20
f 30//5 5//21 27//22
f 9//4 6//2 7//11
f 1//23 4//24 11//1
f 9//4 1//23 12//3
f 6//2 11//1 13//25
f 19//26 17//27 22//28
f 20//9 16//29 14//30
f 25//31 26//32 21//33
f 1//23 11//1 12//3
f 2//34 30//5 3//7
f 30//5 31//35 8//6
f 40//36 37//37 39//38
f 23//39 24//40 41//41
f 26//32 25//31 42//42
f 9//4 44//43 5//21
f 48//44 9//4 10//12
f 51//45 45//46 54//47
f 50//48 52//49 54//50
f 57//51 24//52 21//53
f 21//54 26//55 58//56
f 8//6 31//35 60//15
f 46//16 60//15 44//43
f 61//57 39//58 33//59
f 56//60 58//56 57//61
f 58//56 26//55 42//62
f 66//19 46//16 45//63
f 7//11 6//2 67//64
f 8//6 46//16 66//19
f 8//6 66//19 63//17
f 66//19 65//65 67//64
f 7//11 67//64 65//18
f 67//64 64//20 66//19
f 1//23 2//34 3//7 4//66
f 60//15 27//22 5//21
f 60//15 5//21 44//43
f 2//34 5//21 30//5
f 5//21 2//34 1//23 9//4
f 3//7 13//67 4//66
f 16//29 17//68 15//69 14//30
f 14//70 13//25 11//1
f 13//67 14//71 15//69 4//66
f 18//72 14//70 11//1 4//24
f 19//26 20//73 14//74 17//27
f 15//69 18//75 4//66
f 16//29 20//9 22//8 17//76
f 14//74 18//77 17//27
f 17//68 18//75 15//69
f 23//39 20//78 21//33 24//40
f 28//79 29//80 30//81 27//79
f 29//80 32//82 31//82 30//81
f 33//83 34//84 29//85 28//83
f 34//84 35//86 32//86 29//85
f 39//87 37//88 34//89 33//87
f 38//90 36//91 37//92
f 37//88 36//93 35//93 34//89
f 42//94 25//95 37//37 40//36
f 23//96 41//96 38//90 37//92
f 22//28 23//97 25//95 19//26
f 25//95 23//97 37//37
f 25//31 21//33 20//78 19//98
f 43//99 45//63 46//16 44//43
f 10//12 47//100 43//99 48//44
f 43//99 44//43 9//4 48//44
f 43//99 47//14 45//63
f 53//101 50//102 51//45 52//103
f 47//14 49//13 50//104
f 51//45 50//105 49//106 45//46
f 54//107 45//63 47//14 50//104
f 56//108 52//49 50//48 55//109
f 53//101 21//54 55//110 50//102
f 51//45 54//47 52//103
f 21//111 53//111 52//49 56//108
f 28//112 27//112 60//113 59//114
f 28//115 33//115 35//115 32//115
f 28//115 32//115 31//115 27//115
f 59//114 60//113 31//116 32//116
f 39//115 36//115 35//115 33//115
f 33//117 28//117 59//118 61//119
f 61//119 59//118 32//120 35//121
f 36//122 38//122 62//123 61//57
f 42//115 41//115 38//115 40//115
f 35//121 36//124 61//119
f 39//115 40//115 38//115 36//115
f 62//123 40//125 39//58 61//57
f 24//126 57//126 58//126 41//126
f 42//127 40//127 62//128 58//129
f 38//130 41//130 58//129 62//128
f 58//56 56//60 55//110 21//54
f 26//115 24//115 41//115 42//115
f 21//53 56//131 57//51
f 3//132 63//17 64//20 13//25
f 49//106 65//65 66//19 45//46
f 6//2 13//25 64//20 67//64
f 65//18 49//13 10//12
usemtl 039BE5
f 75//133 72//134 77//135
f 87//136 69//137 86//138
f 75//133 70//139 72//134
f 68//140 69//137 87//136
usemtl 455A64
f 79//141 78//142 84//143
f 82//144 84//143 78//142
f 95//145 92//146 97//147
f 96//148 95//145 97//147
f 71//149 76//150 72//134
f 75//133 74//151 70//139
f 77//135 73//152 75//133
f 77//135 72//134 76//153
f 80//154 78//142 79//141
f 82//155 81//156 83//157
f 84//143 83//158 79//159
f 85//160 69//137 89//161
f 91//162 86//138 85//163
f 90//164 87//136 88//165
f 92//146 93//166 94//167
f 94//167 96//148 97//147
f 78//142 80//154 81//156 82//155
f 70//139 71//149 72//134
f 73//152 74//151 75//133
f 76//153 73//152 77//135
f 88//168 87//136 86//138 91//162
f 84//143 82//144 83//158
f 85//160 86//138 69//137
f 89//169 68//140 90//170
f 89//169 69//137 68//140
f 90//164 68//140 87//136
f 94//167 97//147 92//146
f 92//146 95//171 93//166
